PathFileType	4	(X/Y/Z)	C:/Users/beibeiliu/ov580/test_trc/User3\sequence.10_training_dense_left.trc
DataRate	CameraRate	NumFrames	NumMarkers	Units	OrigDataRate	OrigDataStartFrame	OrigNumFrames
120	120	21	19	mm	120	1	263
Frame#	Time	ThumbCMC			ThumbMCP			ThumbIP			ThumbTip			IndexMCP			IndexPIP			IndexTip			MiddleMCP			MiddlePIP			MiddleTip			RingMCP			RingPIP			RingTip			PinkyMCP			PinkyPIP			PinkyTip			BackHand1			BackHand2			BackHand3	
		X0	Y0	Z0	X1	Y1	Z1	X2	Y2	Z2	X3	Y3	Z3	X4	Y4	Z4	X5	Y5	Z5	X6	Y6	Z6	X7	Y7	Z7	X8	Y8	Z8	X9	Y9	Z9	X10	Y10	Z10	X11	Y11	Z11	X12	Y12	Z12	X13	Y13	Z13	X14	Y14	Z14	X15	Y15	Z15	X16	Y16	Z16	X17	Y17	Z17	X18	Y18	Z18	
0	0	-152.041	-24.7287	28.2133	-130.992	-33.2718	10.1704	-107.733	-39.0682	-9.12259	-93.4402	-47.2589	-29.2746	-158.013	-13.7122	-51.6795	-145.938	-18.9829	-76.6071	-136.928	-32.4432	-104.4	-179.979	-12.3105	-62.0262	-175.624	-18.9523	-91.264	-171.697	-38.2166	-118.91	-199.749	-17.6454	-58.837	-200.071	-22.2243	-82.28	-199.907	-38.5341	-106.767	-224.104	-26.961	-46.0924	-225.312	-32.6509	-65.6298	-221.475	-44.328	-89.0476	-207.908	-4.75149	-8.70166	-214.656	-3.47811	25.5423	-179.092	-2.09643	11.0619	
1	0.00833333	-154.115	-25.5096	25.557	-130.719	-32.3139	9.03562	-113.534	-39.6071	-11.3522	-95.1825	-47.7282	-29.0359	-158.955	-13.7665	-53.4889	-147.45	-19.6868	-81.2585	-139.614	-33.5761	-105.474	-179.686	-12.3394	-64.6366	-175.628	-18.0007	-89.0557	-172.509	-38.3643	-119.121	-205.179	-17.1061	-57.5937	-199.692	-22.5772	-82.6635	-199.154	-41.1939	-111.143	-222.947	-27.3227	-42.1363	-225.781	-34.152	-70.9306	-225.442	-43.8954	-89.4252	-211.489	-6.21447	-5.51651	-214.265	-2.54156	22.6776	-178.903	-3.17614	9.23311	
2	0.0166667	-154.853	-26.3135	27.375	-133.39	-33.0012	11.1114	-109.362	-39.9207	-13.0549	-98.4866	-47.6881	-25.7933	-153.517	-14.5509	-55.8012	-148.366	-19.802	-79.0662	-136.752	-31.7845	-101.154	-182.833	-11.8155	-61.6223	-176.18	-18.7507	-90.0927	-170.042	-37.3408	-117.396	-200.591	-16.9189	-54.8191	-199.887	-24.5228	-86.5845	-200.519	-41.2376	-109.876	-224.441	-26.2637	-43.6871	-226.506	-33.9769	-68.7236	-223.682	-46.0006	-88.0842	-212.239	-5.59203	-6.095	-213.696	-4.25713	22.5537	-180.982	-3.67129	11.8577	
3	0.025	-150.949	-25.4275	23.7398	-133.381	-33.0688	8.09802	-111.699	-39.7679	-11.4846	-97.9501	-47.571	-24.1194	-156.463	-14.5515	-55.4277	-143.645	-20.1019	-81.1042	-142.362	-31.039	-101.083	-180.712	-11.992	-59.6506	-176.271	-19.5466	-91.8076	-172.73	-38.1687	-117.849	-199.957	-16.6637	-57.1333	-200.931	-23.7289	-85.2066	-198.945	-37.3268	-105.88	-220.054	-27.0909	-41.4449	-222.106	-31.908	-67.8668	-223.972	-43.7185	-89.1442	-210.072	-6.63314	-8.50341	-217.383	-4.06028	21.2445	-179.153	-3.17789	9.36643	
4	0.0333333	-155.95	-26.3048	26.5536	-131.498	-32.7176	6.94372	-109.396	-39.6216	-9.26471	-95.0644	-47.6035	-25.326	-154.359	-13.5869	-51.4667	-145.976	-17.9472	-76.8108	-137.379	-29.9092	-100.192	-177.589	-10.7763	-64.8692	-173.01	-20.6482	-93.2325	-169.922	-36.5912	-116.643	-204.663	-17.7238	-56.8493	-199.432	-23.4983	-86.5565	-200.115	-40.7467	-109.178	-225.01	-27.2704	-44.7669	-221.118	-31.853	-66.2459	-223.761	-43.9976	-89.4118	-210.979	-5.00792	-7.96479	-211.628	-3.11002	20.5034	-179.914	-4.11808	9.23115	
5	0.0416667	-154.581	-25.6234	22.5976	-132.664	-32.158	7.53658	-110.946	-39.1195	-13.6202	-94.6673	-47.6554	-26.5173	-153.897	-13.7926	-50.2639	-148.065	-19.6683	-81.1402	-138.172	-30.3219	-100.296	-181.828	-12.0919	-64.5241	-174.201	-19.051	-91.133	-173.06	-37.9933	-117.61	-205.223	-17.5342	-57.0946	-202.614	-24.0019	-86.477	-202.124	-38.939	-107.123	-222.965	-26.1765	-44.1301	-222.176	-31.476	-64.7501	-224.324	-46.1742	-87.623	-208.109	-5.09373	-4.27536	-214.277	-3.84625	22.0787	-176.873	-3.80956	10.826	
6	0.05	-152.442	-25.1494	23.6341	-130.165	-32.3959	7.68119	-113.272	-41.127	-9.39809	-97.7756	-47.9788	-25.9408	-157.015	-13.8207	-55.9331	-145.598	-18.7487	-76.4534	-140.637	-30.4062	-100.911	-182.755	-12.1723	-65.0928	-174.413	-18.3675	-88.8902	-170.889	-38.2311	-119.398	-200.989	-17.2926	-54.3312	-201.959	-23.1155	-83.6104	-198.258	-40.4289	-110.239	-225.559	-26.8472	-44.6412	-224.291	-34.1785	-70.1683	-224.354	-46.9562	-89.2026	-207.205	-7.24494	-3.8038	-216.151	-3.90615	23.6081	-180.524	-2.35344	11.812	
7	0.0583333	-153.8	-24.9027	28.2079	-131.821	-32.8753	10.4713	-108.621	-39.1166	-11.719	-94.3782	-47.377	-24.6819	-156.239	-12.8445	-54.4738	-144.247	-19.8951	-80.8165	-141.509	-29.5421	-101.533	-181.17	-11.8621	-64.5431	-175.667	-18.6582	-89.8301	-167.634	-40.2138	-120.613	-200.845	-16.7228	-55.7057	-204.508	-23.6715	-84.2613	-201.554	-39.3653	-107.086	-225.135	-25.7669	-47.0614	-224.236	-32.5789	-66.8751	-223.293	-48.8355	-91.1215	-212.738	-6.92733	-4.52968	-215.988	-4.08027	21.665	-177.683	-1.32717	11.2363	
8	0.0666667	-153.518	-25.6366	24.9391	-132.166	-33.1429	7.01402	-113.23	-39.9466	-11.6777	-95.6316	-47.3333	-29.276	-156.479	-12.7761	-52.4242	-145.377	-19.3656	-82.1705	-135.856	-32.5781	-104.296	-180.923	-11.01	-61.3419	-177.772	-19.6647	-93.7378	-170.477	-38.7283	-118.921	-202.566	-16.3172	-57.8514	-203.789	-22.8455	-84.2092	-197.8	-40.3854	-109.112	-225.743	-26.2692	-42.754	-224.422	-31.8221	-66.0891	-224.944	-46.9041	-90.0568	-209.664	-7.01899	-6.24524	-216.791	-4.5444	24.2171	-179.468	-3.53061	11.6725	
9	0.075	-155.792	-25.5818	26.031	-128.628	-32.8373	8.76066	-109.193	-39.3267	-8.49485	-98.7126	-48.6335	-26.243	-155.022	-13.4464	-53.5223	-148.607	-18.1175	-78.3054	-139.934	-30.4034	-103.076	-179.033	-10.8325	-63.5209	-173.712	-18.2604	-91.4103	-169.813	-38.0034	-117.55	-199.116	-15.4309	-58.4703	-204.717	-21.4052	-82.9468	-199.739	-39.4947	-107.563	-221.104	-26.0856	-41.475	-224.995	-32.9789	-68.4991	-223.26	-46.1608	-88.5546	-212.282	-6.19577	-5.92321	-215.688	-3.16424	20.218	-178.34	-2.76298	12.4515	
10	0.0833333	-153.166	-24.4191	24.5963	-130.951	-32.4868	8.72796	-110.494	-40.0594	-11.112	-95.0518	-47.7786	-27.3582	-157.127	-13.8008	-54.8914	-145.657	-18.901	-78.4086	-140.203	-31.9617	-104.591	-180.042	-10.6498	-65.0708	-174.652	-18.1712	-90.091	-173.534	-37.6189	-117.571	-205.56	-16.5406	-56.9141	-203.959	-21.2341	-82.9693	-198.943	-38.9498	-109.102	-221.106	-25.9289	-41.7712	-224.362	-31.521	-68.0167	-223.302	-45.3959	-87.936	-212	-5.91823	-5.3581	-214.718	-4.01993	19.5682	-180.142	-1.72364	11.1414	
11	0.0916667	-157.085	-26.3063	26.6463	-129.035	-32.6229	11.2257	-109.241	-39.548	-9.01264	-98.8112	-48.0097	-26.4378	-155.551	-13.5171	-54.6568	-145.179	-19.4071	-80.457	-140.65	-29.9631	-101.24	-180.513	-11.1028	-61.9218	-176.741	-18.5832	-92.2234	-171.48	-39.3014	-120.573	-204.323	-16.8015	-54.6429	-200.742	-21.2168	-81.8683	-201.563	-36.9074	-106.501	-219.615	-25.0024	-46.5105	-222.804	-31.1049	-65.369	-225.41	-46.151	-89.8363	-211.632	-4.53813	-7.10955	-217.368	-3.11944	21.4609	-177.023	-3.90761	10.0329	
12	0.1	-156.564	-25.335	22.2569	-134.326	-34.4162	7.85246	-109.28	-41.1903	-9.26725	-95.4835	-48.1295	-25.211	-154.462	-13.746	-55.5315	-143.215	-19.3345	-79.2074	-139.037	-30.0604	-100.126	-178.42	-11.3585	-63.6797	-175.96	-19.5877	-93.4251	-172.787	-36.821	-118.039	-205.703	-16.4291	-56.5634	-199.333	-22.3602	-85.0408	-200.333	-38.4837	-107.733	-224.02	-26.3481	-42.7366	-224.906	-31.4084	-65.0733	-223.764	-44.993	-91.001	-207.16	-6.76897	-8.14518	-214.847	-3.95442	23.8365	-179.472	-4.57171	11.9305	
13	0.108333	-155.684	-27.5976	26.2925	-129.876	-34.3709	8.10293	-109.164	-41.0148	-11.6324	-95.7279	-49.8082	-27.3901	-159.268	-14.4047	-53.2587	-146.677	-18.4212	-77.7251	-138.932	-32.7596	-103.91	-180.184	-10.7887	-65.6121	-174.455	-19.1684	-92.9848	-170.64	-36.5097	-117.667	-202.925	-16.7531	-58.6002	-202.064	-22.1505	-81.8812	-200.016	-37.7256	-106.566	-220.707	-24.9235	-46.7386	-224.995	-33.2572	-70.3563	-222.856	-44.308	-90.4593	-208.343	-7.51111	-8.24836	-214.492	-2.81085	21.221	-179.698	-2.81464	13.6329	
14	0.116667	-154.017	-26.9677	25.839	-131.868	-35.0356	10.9004	-109.881	-42.5568	-9.18755	-98.5347	-50.691	-27.0302	-158.657	-14.8472	-56.205	-147.995	-20.0771	-79.7592	-139.678	-34.2078	-103.096	-179.574	-12.1962	-62.2081	-173.965	-19.4798	-91.3892	-172.201	-40.3351	-121.998	-202.83	-17.797	-57.7733	-202.372	-23.6634	-84.1819	-199.717	-38.1675	-105.929	-225.438	-25.3987	-46.9287	-226.971	-30.6832	-66.4282	-225.746	-44.9371	-92.8999	-212.757	-6.65664	-5.76885	-213.712	-5.94433	20.86	-180.67	-4.32119	10.6752	
15	0.125	-154.433	-29.2432	25.0805	-132.326	-37.0753	7.1896	-109.241	-43.6567	-13.9822	-97.9992	-53.6895	-25.6961	-156.884	-16.0444	-54.2266	-144.499	-21.5159	-79.4763	-141.328	-35.4246	-106.689	-183.047	-12.8355	-62.0616	-173.57	-21.3	-94.2645	-171.748	-38.4485	-119.606	-204.618	-18.3002	-56.3828	-201.583	-24.1673	-82.4674	-202.296	-39.4913	-107.218	-226.236	-25.8399	-45.6794	-224.69	-31.171	-67.4205	-223.175	-43.6818	-91.2576	-209.695	-8.42865	-8.36146	-214.05	-5.9355	21.5592	-177.97	-3.88355	8.31276	
16	0.133333	-154.687	-30.5545	26.3002	-130.489	-38.9585	4.90905	-112.534	-46.7306	-12.4654	-97.9476	-55.0062	-30.942	-158.801	-17.6212	-52.8098	-148.788	-24.3382	-82.772	-142.238	-35.0711	-104.573	-185.19	-15.1595	-61.3016	-179.293	-22.0228	-93.0984	-175.138	-39.7826	-119.437	-201.612	-20.197	-57.8378	-204.295	-25.5702	-85.3793	-202.947	-41.7579	-111.35	-224.72	-27.0543	-46.7559	-225.76	-31.774	-67.1009	-224.749	-44.1759	-89.0574	-211.019	-8.67006	-4.29015	-213.02	-5.2577	19.7794	-179.919	-5.61274	7.4439	
17	0.141667	-153.445	-32.5142	24.3122	-134.487	-42.1551	8.43893	-114.001	-50.0588	-11.569	-98.6467	-58.4001	-28.9222	-156.433	-19.7904	-52.014	-149.585	-26.1523	-82.9303	-143.125	-36.9523	-104.067	-183.266	-15.8972	-65.8047	-177.166	-23.3603	-91.9849	-176.648	-44.1371	-122.809	-205.32	-20.3506	-58.7039	-205.423	-25.1122	-83.1249	-199.771	-41.9242	-108.902	-223.68	-27.5435	-43.7472	-227.31	-33.0382	-69.787	-226.613	-43.4407	-87.7456	-208.892	-9.10006	-7.10869	-215.394	-7.01331	19.2324	-181.691	-7.82472	8.98889	
18	0.15	-153.377	-34.3654	22.3934	-136.779	-44.1698	7.3005	-112.39	-52.7421	-15.522	-103.583	-60.9646	-31.3714	-158.922	-22.2467	-52.6027	-148.755	-26.9249	-81.3135	-146.268	-38.8079	-105.699	-183.251	-16.3523	-62.8094	-180.882	-25.315	-96.205	-178.403	-42.3528	-118.985	-205.75	-21.082	-56.6211	-207.406	-26.7722	-85.8056	-203.783	-43.6229	-111.765	-225.489	-28.7295	-44.0935	-225.306	-33.3333	-70.1297	-225.263	-43.0124	-88.6522	-208.674	-11.1072	-5.35435	-215.935	-7.03285	22.122	-182.821	-11.5982	9.71855	
19	0.158333	-157.01	-37.5139	22.1658	-133.661	-46.827	6.67288	-115.446	-55.3195	-14.1603	-101.596	-64.4301	-30.1825	-160.756	-21.6378	-58.0737	-151.206	-27.3069	-80.1792	-147.239	-41.7097	-105.795	-183.993	-17.0724	-66.7137	-176.73	-26.2688	-93.8223	-178.204	-46.0351	-119.259	-207.801	-21.5868	-61.1333	-205.703	-27.1778	-83.7335	-204.072	-45.1356	-110.906	-227.962	-28.8708	-43.3166	-229.599	-32.8445	-67.9489	-229.535	-45.8359	-89.8963	-209.817	-9.85394	-8.38165	-214.886	-11.3583	23.7268	-177.738	-12.1967	10.922	
20	0.166667	-159.758	-38.9112	23.9394	-134.343	-48.5716	3.33214	-115.085	-57.2432	-17.3719	-102.247	-67.4166	-33.3534	-162.06	-23.1143	-53.6914	-153.366	-30.474	-84.78	-148.773	-46.8856	-107.628	-187.125	-18.6619	-64.1116	-177.65	-27.4139	-93.2006	-178.591	-51.7774	-119.562	-207.884	-22.5261	-58.2203	-207.528	-29.6352	-89.0468	-203.671	-47.824	-108.446	-227.653	-29.7304	-44.7697	-229.719	-35.0129	-68.8081	-226.953	-47.3888	-90.0022	-210.896	-13.0367	-7.41823	-214.899	-11.6162	19.7318	-182.04	-12.2873	6.8217	
